<svg width="1440" height="20" viewBox="0 0 1440 20" fill="none" xmlns="http://www.w3.org/2000/svg">
<path d="M96 8.21429C57.6 -2.7381 25.6 -2.7381 0 8.21429V20H1440V8.21429C1401.6 -2.7381 1369.6 -2.7381 1344 8.21429C1318.4 19.1667 1286.4 19.1667 1248 8.21429C1209.6 -2.7381 1177.6 -2.7381 1152 8.21429C1126.4 19.1667 1094.4 19.1667 1056 8.21429C1017.6 -2.7381 985.6 -2.7381 960 8.21429C934.4 19.1667 902.4 19.1667 864 8.21429C825.6 -2.7381 793.6 -2.7381 768 8.21429C742.4 19.1667 710.4 19.1667 672 8.21429C633.6 -2.7381 601.6 -2.7381 576 8.21429C550.4 19.1667 518.4 19.1667 480 8.21429C441.6 -2.7381 409.6 -2.7381 384 8.21429C358.4 19.1667 326.4 19.1667 288 8.21429C249.6 -2.7381 217.6 -2.7381 192 8.21429C166.4 19.1667 134.4 19.1667 96 8.21429Z" fill="#E0F4F8"/>
</svg>
