<svg width="1440" height="35" viewBox="0 0 1440 35" fill="none" xmlns="http://www.w3.org/2000/svg">
<path d="M0 11.5C13.7143 -3.83333 30.8571 -3.83333 51.4286 11.5C72 26.8333 89.1429 26.8333 102.857 11.5C116.571 -3.83333 133.714 -3.83333 154.286 11.5C174.857 26.8333 192 26.8333 205.714 11.5C219.429 -3.83333 236.571 -3.83333 257.143 11.5C277.714 26.8333 294.857 26.8333 308.571 11.5C322.286 -3.83333 339.429 -3.83333 360 11.5C380.571 26.8333 397.714 26.8333 411.429 11.5C425.143 -3.83333 442.286 -3.83333 462.857 11.5C483.429 26.8333 500.571 26.8333 514.286 11.5C528 -3.83333 545.143 -3.83333 565.714 11.5C586.286 26.8333 603.429 26.8333 617.143 11.5C630.857 -3.83333 648 -3.83333 668.571 11.5C689.143 26.8333 706.286 26.8333 720 11.5C733.714 -3.83333 750.857 -3.83333 771.429 11.5C792 26.8333 809.143 26.8333 822.857 11.5C836.571 -3.83333 853.714 -3.83333 874.286 11.5C894.857 26.8333 912 26.8333 925.714 11.5C939.429 -3.83333 956.571 -3.83333 977.143 11.5C997.714 26.8333 1014.86 26.8333 1028.57 11.5C1042.29 -3.83333 1059.43 -3.83333 1080 11.5C1100.57 26.8333 1117.71 26.8333 1131.43 11.5C1145.14 -3.83333 1162.29 -3.83333 1182.86 11.5C1203.43 26.8333 1220.57 26.8333 1234.29 11.5C1248 -3.83333 1265.14 -3.83333 1285.71 11.5C1306.29 26.8333 1323.43 26.8333 1337.14 11.5C1350.86 -3.83333 1368 -3.83333 1388.57 11.5C1409.14 26.8333 1426.29 26.8333 1440 11.5V34.5H0V11.5Z" fill="#1E93BD"/>
</svg>
