<svg width="123" height="86" viewBox="0 0 123 86" fill="none" xmlns="http://www.w3.org/2000/svg">
<path d="M26.0659 14.7786C12.0434 16.1332 11.7301 28.4001 12.4748 33.8251L15.8037 44.1314C3.26546 73.8978 40.8802 84.9047 59.5441 74.185C74.4752 65.6092 76.1232 45.9809 74.9747 38.7068C62.8512 39.4088 38.6233 42.4009 42.9112 37.6535C48.271 31.7194 43.1026 13.1329 26.0659 14.7786Z" fill="#FFE046" stroke="#333333" stroke-width="2.48126" stroke-linejoin="round"/>
<path d="M20.1869 28.9297C20.9228 23.4872 26.6019 23.6201 27.424 28.4005" stroke="#333333" stroke-width="2.48126" stroke-linecap="round" stroke-linejoin="round"/>
<path d="M15.5382 71.9491C12.9731 69.6109 9.12549 69.4301 9.12549 71.9491V79.1924H73.2525V71.9491C73.2525 67.9941 69.4049 74.2873 66.8398 71.9491C64.2747 69.6109 62.1372 69.6109 60.4271 71.9491C58.7171 74.2873 56.5795 74.2873 54.0144 71.9491C51.4493 69.6109 49.3118 69.6109 47.6017 71.9491C45.8917 74.2873 43.7541 74.2873 41.189 71.9491C38.6239 69.6109 36.4864 69.6109 34.7763 71.9491C33.0662 74.2873 30.9287 74.2873 28.3636 71.9491C25.7985 69.6109 23.6609 69.6109 21.9509 71.9491C20.2408 74.2873 18.1033 74.2873 15.5382 71.9491Z" fill="#05ACD5" stroke="#333333" stroke-width="2.48126"/>
<path d="M66.2662 52.5845C71.8175 47.7989 77.4644 40.3333 76.8364 33.0766C52.7707 29.9963 31.0218 39.3188 37.5946 50.9745C44.7729 63.7039 60.1064 57.8947 66.2662 52.5845Z" fill="#05ACD5" stroke="#333333" stroke-width="2.48126" stroke-linejoin="round"/>
<path d="M23.7697 40.525C19.7881 40.2187 14.3581 36.218 12.5714 34.0166C11.6143 36.6008 5.93541 41.5778 3.00024 43.6835C12.0355 46.976 21.1536 42.5988 23.7697 40.525Z" fill="#FD9F42" stroke="#333333" stroke-width="2.48126" stroke-linejoin="round"/>
<path d="M59.7258 19.4871C59.7258 18.7483 59.599 18.1417 59.3453 17.6675C59.1027 17.1933 58.7609 16.8404 58.3197 16.6089C57.8897 16.3662 57.3879 16.2449 56.8144 16.2449C56.6159 16.2449 56.423 16.256 56.2355 16.278C56.059 16.289 55.8771 16.3056 55.6896 16.3276V22.597C55.855 22.63 56.0425 22.6576 56.252 22.6797C56.4616 22.6907 56.6601 22.6962 56.8475 22.6962C57.7187 22.6962 58.4135 22.426 58.9318 21.8857C59.4611 21.3453 59.7258 20.5458 59.7258 19.4871ZM62.3228 19.4375C62.3228 20.6285 62.0913 21.6155 61.6281 22.3985C61.176 23.1814 60.5363 23.7714 59.7092 24.1684C58.8932 24.5544 57.9338 24.7474 56.831 24.7474C56.4671 24.7474 56.0204 24.7198 55.4911 24.6647C54.9618 24.6206 54.4821 24.5213 54.052 24.3669C53.4785 24.1574 53.1918 23.788 53.1918 23.2586V15.3517C53.1918 15.1311 53.2525 14.9657 53.3738 14.8554C53.4951 14.7341 53.655 14.6349 53.8535 14.5577C54.2946 14.4143 54.7688 14.3206 55.2761 14.2765C55.7833 14.2324 56.2465 14.2103 56.6656 14.2103C57.8014 14.2103 58.7884 14.4033 59.6265 14.7893C60.4757 15.1642 61.1374 15.7377 61.6116 16.5096C62.0857 17.2815 62.3228 18.2575 62.3228 19.4375ZM68.4447 24.7805C67.5404 24.7805 66.763 24.6206 66.1123 24.3008C65.4727 23.9699 64.9765 23.5123 64.6236 22.9278C64.2817 22.3433 64.1108 21.6596 64.1108 20.8766V19.7849H66.6417V20.8105C66.6417 21.417 66.8071 21.8912 67.1379 22.233C67.4798 22.5639 67.9154 22.7293 68.4447 22.7293C68.9741 22.7293 69.4041 22.5639 69.735 22.233C70.0768 21.8912 70.2478 21.417 70.2478 20.8105V19.7849H72.7787V20.8766C72.7787 21.6596 72.6077 22.3433 72.2659 22.9278C71.924 23.5123 71.4277 23.9699 70.7771 24.3008C70.1265 24.6206 69.349 24.7805 68.4447 24.7805ZM66.6417 20.2811H64.1108V14.4419C64.2321 14.4198 64.403 14.3923 64.6236 14.3592C64.8441 14.3261 65.0647 14.3095 65.2852 14.3095C65.7594 14.3095 66.1013 14.3923 66.3108 14.5577C66.5314 14.7231 66.6417 15.0374 66.6417 15.5006V20.2811ZM72.7787 20.3142H70.2478V14.4419C70.3691 14.4198 70.54 14.3923 70.7606 14.3592C70.9921 14.3261 71.2127 14.3095 71.4222 14.3095C71.8964 14.3095 72.2383 14.3923 72.4478 14.5577C72.6684 14.7231 72.7787 15.0374 72.7787 15.5006V20.3142ZM82.8221 15.8314C82.8221 16.085 82.7559 16.3056 82.6236 16.4931C82.4912 16.6805 82.3424 16.8294 82.177 16.9397C81.9013 16.7522 81.587 16.5868 81.2341 16.4434C80.8922 16.3001 80.4842 16.2284 80.01 16.2284C79.4255 16.2284 78.9182 16.3552 78.4881 16.6089C78.0581 16.8625 77.7272 17.2319 77.4956 17.7171C77.2751 18.2024 77.1648 18.7924 77.1648 19.4871C77.1648 20.5458 77.4295 21.3508 77.9588 21.9022C78.4881 22.4536 79.216 22.7293 80.1423 22.7293C80.6165 22.7293 81.0245 22.6631 81.3664 22.5308C81.7083 22.3985 82.0226 22.2496 82.3093 22.0842C82.4747 22.2055 82.607 22.3654 82.7063 22.5639C82.8166 22.7514 82.8717 22.9719 82.8717 23.2256C82.8717 23.4461 82.8111 23.6501 82.6897 23.8376C82.5795 24.0251 82.3865 24.185 82.1108 24.3173C81.9013 24.4276 81.6035 24.5324 81.2175 24.6316C80.8316 24.7309 80.3629 24.7805 79.8115 24.7805C78.841 24.7805 77.9533 24.593 77.1483 24.2181C76.3543 23.8321 75.7257 23.2531 75.2625 22.4812C74.7993 21.6982 74.5677 20.7002 74.5677 19.4871C74.5677 18.3402 74.7938 17.3753 75.246 16.5923C75.7091 15.7983 76.3267 15.1973 77.0986 14.7893C77.8706 14.3812 78.7252 14.1772 79.6626 14.1772C80.3133 14.1772 80.8757 14.2544 81.3499 14.4088C81.8241 14.5522 82.188 14.7507 82.4416 15.0043C82.6953 15.2469 82.8221 15.5226 82.8221 15.8314ZM85.9682 19.1728L88.7803 18.842C89.7067 19.8235 90.5338 20.7002 91.2616 21.4721C91.9894 22.2441 92.5794 22.8616 93.0316 23.3248C93.0316 23.7439 92.8937 24.0747 92.618 24.3173C92.3423 24.5489 92.0225 24.6647 91.6586 24.6647C91.2616 24.6647 90.9363 24.5654 90.6826 24.3669C90.429 24.1684 90.1864 23.9368 89.9548 23.6722L85.9682 19.1728ZM88.8465 20.0495L85.6374 20.1984L90.8315 14.3757C91.4601 14.3757 91.9178 14.5025 92.2045 14.7562C92.4912 14.9988 92.6346 15.2855 92.6346 15.6163C92.6346 15.87 92.5684 16.1126 92.4361 16.3442C92.3148 16.5647 92.1108 16.8074 91.824 17.072L88.8465 20.0495ZM84.5953 17.4856H87.1096V24.4827C87.0104 24.5158 86.8505 24.5489 86.6299 24.582C86.4094 24.6151 86.1833 24.6316 85.9517 24.6316C85.4555 24.6316 85.1026 24.5434 84.893 24.3669C84.6945 24.1795 84.5953 23.8707 84.5953 23.4406V17.4856ZM87.1096 20.6616H84.5953V14.4419C84.7056 14.4198 84.871 14.3923 85.0915 14.3592C85.3231 14.3261 85.5437 14.3095 85.7532 14.3095C86.2384 14.3095 86.5858 14.3923 86.7953 14.5577C87.0049 14.7231 87.1096 15.0374 87.1096 15.5006V20.6616ZM94.5623 17.5021H97.0767V24.4827C96.9774 24.5158 96.8175 24.5434 96.597 24.5654C96.3764 24.5985 96.1503 24.6151 95.9188 24.6151C95.4225 24.6151 95.0696 24.5268 94.8601 24.3504C94.6616 24.1739 94.5623 23.8652 94.5623 23.4241V17.5021ZM97.0767 20.6781H94.5623V14.4419C94.6726 14.4198 94.838 14.3923 95.0586 14.3592C95.2902 14.3261 95.5162 14.3095 95.7368 14.3095C96.211 14.3095 96.5529 14.3923 96.7624 14.5577C96.9719 14.7231 97.0767 15.0374 97.0767 15.5006V20.6781ZM105.975 19.4871C105.975 18.7483 105.848 18.1417 105.594 17.6675C105.352 17.1933 105.01 16.8404 104.569 16.6089C104.139 16.3662 103.637 16.2449 103.064 16.2449C102.865 16.2449 102.672 16.256 102.485 16.278C102.308 16.289 102.126 16.3056 101.939 16.3276V22.597C102.104 22.63 102.292 22.6576 102.501 22.6797C102.711 22.6907 102.909 22.6962 103.097 22.6962C103.968 22.6962 104.663 22.426 105.181 21.8857C105.71 21.3453 105.975 20.5458 105.975 19.4871ZM108.572 19.4375C108.572 20.6285 108.34 21.6155 107.877 22.3985C107.425 23.1814 106.785 23.7714 105.958 24.1684C105.142 24.5544 104.183 24.7474 103.08 24.7474C102.716 24.7474 102.269 24.7198 101.74 24.6647C101.211 24.6206 100.731 24.5213 100.301 24.3669C99.7276 24.1574 99.4409 23.788 99.4409 23.2586V15.3517C99.4409 15.1311 99.5015 14.9657 99.6228 14.8554C99.7441 14.7341 99.904 14.6349 100.103 14.5577C100.544 14.4143 101.018 14.3206 101.525 14.2765C102.032 14.2324 102.496 14.2103 102.915 14.2103C104.05 14.2103 105.037 14.4033 105.876 14.7893C106.725 15.1642 107.386 15.7377 107.861 16.5096C108.335 17.2815 108.572 18.2575 108.572 19.4375ZM113.404 22.7293C113.999 22.7293 114.424 22.6245 114.677 22.415C114.942 22.1945 115.074 21.9353 115.074 21.6375C115.074 21.3618 114.969 21.1413 114.76 20.9759C114.561 20.7994 114.264 20.6506 113.867 20.5292L112.99 20.248C112.394 20.0495 111.865 19.829 111.402 19.5864C110.95 19.3438 110.597 19.0295 110.343 18.6435C110.101 18.2575 109.979 17.7668 109.979 17.1713C109.979 16.256 110.327 15.5281 111.022 14.9878C111.716 14.4474 112.681 14.1772 113.916 14.1772C114.545 14.1772 115.102 14.2379 115.587 14.3592C116.083 14.4805 116.469 14.6624 116.745 14.9051C117.032 15.1366 117.175 15.4234 117.175 15.7652C117.175 16.0189 117.114 16.2394 116.993 16.4269C116.883 16.6033 116.739 16.7577 116.563 16.8901C116.309 16.7136 115.973 16.5647 115.554 16.4434C115.135 16.3111 114.672 16.2449 114.164 16.2449C113.635 16.2449 113.238 16.3332 112.973 16.5096C112.709 16.675 112.576 16.8956 112.576 17.1713C112.576 17.3918 112.665 17.5738 112.841 17.7171C113.018 17.8495 113.282 17.9708 113.635 18.0811L114.545 18.3623C115.548 18.6711 116.32 19.0846 116.861 19.6029C117.401 20.1102 117.671 20.7939 117.671 21.6541C117.671 22.5804 117.313 23.3358 116.596 23.9203C115.879 24.4938 114.843 24.7805 113.486 24.7805C112.814 24.7805 112.213 24.7088 111.683 24.5654C111.154 24.4221 110.729 24.2125 110.409 23.9368C110.101 23.6612 109.946 23.3413 109.946 22.9774C109.946 22.6907 110.029 22.4481 110.194 22.2496C110.371 22.0401 110.564 21.8857 110.773 21.7864C111.071 22.029 111.441 22.2496 111.882 22.4481C112.334 22.6356 112.841 22.7293 113.404 22.7293Z" fill="white"/>
</svg>
